<svg xmlns="http://www.w3.org/2000/svg" viewBox="0 0 89 36.82"><defs><style>.cls-1{fill:#fff;}.cls-2{fill:#72bf44;}.cls-3{fill:#20aa4d;}.cls-4{fill:#ffe710;}.cls-5{fill:#231f20;}</style></defs><title>Asset 2</title><g id="Layer_2" data-name="Layer 2"><g id="Capa_1" data-name="Capa 1"><rect class="cls-1" width="89" height="36.82"/><rect class="cls-2" x="19.15" y="8.84" width="1.73" height="2.25"/><rect class="cls-3" x="21.07" y="8.84" width="1.73" height="2.25"/><path class="cls-4" d="M18.1,14.88h0l3.14.54h0V12.11H19.43v-.34a1,1,0,0,0-1-1h-.66a1,1,0,0,0-1,1v.34H15v3.31h0Z"/><circle class="cls-5" cx="18.1" cy="13.54" r="0.51"/><circle class="cls-5" cx="19.93" cy="13.54" r="0.51"/><circle class="cls-5" cx="16.27" cy="13.54" r="0.51"/><polygon class="cls-3" points="21.25 15.42 21.24 15.42 22.8 15.69 22.8 13.74 21.25 13.74 21.25 15.42"/><polygon class="cls-2" points="21.07 11.29 21.07 12.11 21.25 12.11 21.25 13.54 22.8 13.54 22.8 11.29 21.07 11.29"/><path class="cls-3" d="M19.43,11.77v.34h1.45v-.82H19.31A1.06,1.06,0,0,1,19.43,11.77Z"/><path class="cls-3" d="M17.77,10.77h.66a.94.94,0,0,1,.53.15V8.84H17.24v2.08A.94.94,0,0,1,17.77,10.77Z"/><path class="cls-2" d="M20.58,22.06a.93.93,0,0,0,.76.09l1.73-6.42-5-.85v6.93A3.1,3.1,0,0,1,20.58,22.06Z"/><path class="cls-3" d="M15.1,21.66h0a2.67,2.67,0,0,1,1.43.41.89.89,0,0,0,.93,0,2.63,2.63,0,0,1,.6-.25V14.88l-5,.85,1.6,5.95A2.42,2.42,0,0,1,15.1,21.66Z"/><path class="cls-5" d="M22.14,24.24a2,2,0,0,0-1.54-.13h-8v-.48a2.89,2.89,0,0,0,1.47-.34,2.35,2.35,0,0,1,1-.19,1.19,1.19,0,0,1,.71.19,2.36,2.36,0,0,0,2.42,0,2,2,0,0,1,1.75,0,3.45,3.45,0,0,0,1.36.34,2.37,2.37,0,0,0,.7-.11l.08,0a1.15,1.15,0,0,0,.31-.16.77.77,0,0,0,.18-.18,1,1,0,0,0,.09-.17l2.78-6.26H12.77v-3a1.2,1.2,0,0,0-.11-.4.61.61,0,0,0-.4-.3l0,0L9.59,12h0A.73.73,0,0,0,9,12a.82.82,0,0,0-.46.47.76.76,0,0,0,.07.68s0,.06.06.1a.36.36,0,0,0,.09.08.27.27,0,0,0,.11.05l2.47.94v9.82l0,0a2.1,2.1,0,0,0-1,2.2,2,2,0,0,0,3.82.09,1.94,1.94,0,0,0,.05-.76h5a2,2,0,0,0,1.92,2.19h0a2,2,0,0,0,1-3.69Zm-.78,1.23.08,0,.07,0a.51.51,0,0,1,.2.41.52.52,0,0,1-.29.47.59.59,0,0,1-.62-.07,0,0,0,0,1,0,0,.57.57,0,0,1,0-.68.32.32,0,0,1,.08-.09l0,0,.07,0,0,0,.08,0h0a.54.54,0,0,1,.22,0h0m-8.48-3.27h-.08v-4H23.46L21.51,22a.15.15,0,0,1-.08.08.89.89,0,0,1-.85-.05,3.18,3.18,0,0,0-3.08,0,.89.89,0,0,1-.93,0,2.67,2.67,0,0,0-1.43-.41h0a3.81,3.81,0,0,0-1.78.41.67.67,0,0,1-.43.12Zm-.48,3.27.08,0,0,0,.09.07a.3.3,0,0,1,.08.08.57.57,0,0,1,.1.31.52.52,0,0,1-.29.47.59.59,0,0,1-.62-.07l0,0a.55.55,0,0,1,.08-.8L12,25.5l0,0h.09a.54.54,0,0,1,.22,0m.28-2Z"/><path class="cls-5" d="M35.14,12.57a1.67,1.67,0,0,1,.3,1,1.58,1.58,0,0,1-.57,1.3,2.51,2.51,0,0,1-1.61.47H30.43V8.85h2.72a2.48,2.48,0,0,1,1.58.45,1.51,1.51,0,0,1,.57,1.25,1.43,1.43,0,0,1-.28.89,1.59,1.59,0,0,1-.76.57A1.59,1.59,0,0,1,35.14,12.57Zm-3.78-.91H33c.91,0,1.36-.34,1.36-1A.92.92,0,0,0,34,9.86a1.8,1.8,0,0,0-1-.25H31.36Zm2.84,2.67a1,1,0,0,0,.33-.8,1,1,0,0,0-.34-.83,1.64,1.64,0,0,0-1-.27H31.36v2.16h1.79A1.66,1.66,0,0,0,34.2,14.33Z"/><path class="cls-5" d="M37.45,15a2.81,2.81,0,0,1-1.05-1.16A3.9,3.9,0,0,1,36,12.11a3.93,3.93,0,0,1,.37-1.78,2.59,2.59,0,0,1,1-1.15,3.11,3.11,0,0,1,1.61-.41,3.14,3.14,0,0,1,1.62.41,2.59,2.59,0,0,1,1,1.15,3.91,3.91,0,0,1,.37,1.77,3.91,3.91,0,0,1-.37,1.77,2.72,2.72,0,0,1-1,1.16,3.14,3.14,0,0,1-1.62.4A3,3,0,0,1,37.45,15Zm3.12-1a2.86,2.86,0,0,0,.55-1.89,2.92,2.92,0,0,0-.54-1.89,1.86,1.86,0,0,0-1.53-.66,1.84,1.84,0,0,0-1.51.66A2.92,2.92,0,0,0,37,12.1,2.92,2.92,0,0,0,37.54,14a1.85,1.85,0,0,0,1.51.67A1.87,1.87,0,0,0,40.57,14Z"/><path class="cls-5" d="M43.91,15.23a3.19,3.19,0,0,1-1.09-.6l.34-.7a3.22,3.22,0,0,0,1,.56,3.71,3.71,0,0,0,1.15.17,1.89,1.89,0,0,0,1.12-.28.86.86,0,0,0,.4-.77.67.67,0,0,0-.37-.63,4.58,4.58,0,0,0-1.18-.39A7.38,7.38,0,0,1,44,12.21a1.86,1.86,0,0,1-.78-.58,1.51,1.51,0,0,1-.28-.93,1.71,1.71,0,0,1,.3-1A2,2,0,0,1,44.1,9a3.18,3.18,0,0,1,1.28-.25A3.88,3.88,0,0,1,46.67,9a2.58,2.58,0,0,1,1,.6l-.33.7a3.21,3.21,0,0,0-.93-.55,2.83,2.83,0,0,0-1-.18,1.84,1.84,0,0,0-1.1.29.94.94,0,0,0-.41.81.75.75,0,0,0,.36.67,3.63,3.63,0,0,0,1.12.41,9.59,9.59,0,0,1,1.32.38,2,2,0,0,1,.8.55,1.32,1.32,0,0,1,.3.9,1.7,1.7,0,0,1-.3,1,1.91,1.91,0,0,1-.86.65,3.32,3.32,0,0,1-1.32.23A4.67,4.67,0,0,1,43.91,15.23Z"/><path class="cls-5" d="M50.37,15.36V9.64h-2.2V8.85h5.37v.79H51.33v5.72Z"/><path class="cls-5" d="M54.7,15a2.81,2.81,0,0,1-1.05-1.16,4,4,0,0,1-.36-1.76,4.07,4.07,0,0,1,.36-1.78A2.55,2.55,0,0,1,54.7,9.18a3.37,3.37,0,0,1,3.22,0,2.55,2.55,0,0,1,1,1.15,4.05,4.05,0,0,1,.36,1.77A4.05,4.05,0,0,1,59,13.87a2.68,2.68,0,0,1-1,1.16,3.44,3.44,0,0,1-3.22,0Zm3.13-1a2.92,2.92,0,0,0,.54-1.89,2.92,2.92,0,0,0-.54-1.89,1.86,1.86,0,0,0-1.53-.66,1.83,1.83,0,0,0-1.5.66,2.86,2.86,0,0,0-.55,1.89A2.86,2.86,0,0,0,54.8,14a1.84,1.84,0,0,0,1.5.67A1.87,1.87,0,0,0,57.83,14Z"/><path class="cls-5" d="M64.68,8.85h.89v6.51h-.73l-3.72-4.91v4.91h-.9V8.85h.72l3.74,4.92Z"/><path class="cls-5" d="M35,27.9l-1-2.28H29.17l-1,2.28H25.29l5.14-11h2.28l5.15,11Zm-4.93-4.43h3L31.6,19.94Z"/><path class="cls-5" d="M47.22,21.69V27.2a8.58,8.58,0,0,1-1.95.63A11.79,11.79,0,0,1,43,28a6.77,6.77,0,0,1-3.12-.67,4.83,4.83,0,0,1-2-2,6.1,6.1,0,0,1-.7-3,6.08,6.08,0,0,1,.7-3,4.9,4.9,0,0,1,2-2,6.44,6.44,0,0,1,3-.68,7.81,7.81,0,0,1,2.26.31,4.73,4.73,0,0,1,1.71.86L46,20a6.21,6.21,0,0,0-1.47-.72A4.9,4.9,0,0,0,43,19a2.8,2.8,0,0,0-2.21.83,3.79,3.79,0,0,0-.72,2.54A3.83,3.83,0,0,0,40.85,25a2.91,2.91,0,0,0,2.31.85,6.8,6.8,0,0,0,1.49-.16v-2H42.71v-2Z"/><path class="cls-5" d="M58.63,27.9H55.47l-1.9-3.51a1.24,1.24,0,0,0-1.14-.61h-.87V27.9H48.73v-11H54a4.53,4.53,0,0,1,3,.86,3.15,3.15,0,0,1,1,2.51,3.31,3.31,0,0,1-.69,2.12,3.41,3.41,0,0,1-1.94,1.16,2.23,2.23,0,0,1,1.52,1.23Zm-3.74-6.57a1.13,1.13,0,0,0,.41-1,1.18,1.18,0,0,0-.41-1,2.4,2.4,0,0,0-1.37-.3h-2v2.56h2A2.4,2.4,0,0,0,54.89,21.33Z"/><path class="cls-5" d="M59.25,27.9v-11h7.82v2.21H62v2.1h4.72v2.2H62v2.28h5V27.9Z"/><path class="cls-5" d="M75.72,22.35,80.5,27.9H76.57l-2.48-3.46-2.5,3.46H68.27l4.2-5.55L68.35,16.9h3.34l2.4,3.37,2.44-3.37h3.89Z"/></g></g></svg>